Coordinates
version=1
nRows=14
nColumns=63
inDegrees=yes

Units are S.I. units (second, meters, Newtons, ...)
If the header above contains a line with 'inDegrees', this indicates whether rotational values are in degrees (yes) or radians (no).

endheader
time	pelvis_tilt	pelvis_list	pelvis_rotation	pelvis_tx	pelvis_ty	pelvis_tz	hip_flexion_r	hip_adduction_r	hip_rotation_r	knee_angle_r	knee_angle_r_beta	ankle_angle_r	subtalar_angle_r	mtp_angle_r	hip_flexion_l	hip_adduction_l	hip_rotation_l	knee_angle_l	knee_angle_l_beta	ankle_angle_l	subtalar_angle_l	mtp_angle_l	L5_S1_Flex_Ext	L5_S1_Lat_Bending	L5_S1_axial_rotation	L4_L5_Flex_Ext	L4_L5_Lat_Bending	L4_L5_axial_rotation	L3_L4_Flex_Ext	L3_L4_Lat_Bending	L3_L4_axial_rotation	L2_L3_Flex_Ext	L2_L3_Lat_Bending	L2_L3_axial_rotation	L1_L2_Flex_Ext	L1_L2_Lat_Bending	L1_L2_axial_rotation	L1_T12_Flex_Ext	L1_T12_Lat_Bending	L1_T12_axial_rotation	Abs_r3	Abs_r2	Abs_r1	Abs_t1	Abs_t2	neck_flexion	neck_bending	neck_rotation	arm_flex_r	arm_add_r	arm_rot_r	elbow_flex_r	pro_sup_r	wrist_flex_r	wrist_dev_r	arm_flex_l	arm_add_l	arm_rot_l	elbow_flex_l	pro_sup_l	wrist_flex_l	wrist_dev_l
1.679245	-4.545067	-8.065846	83.794761	0.233847	0.820137	0.752356	8.543442	-3.915970	-5.555064	7.708731	0.134543	22.528645	6.084214	0.000000	5.906841	2.087005	-3.290388	2.089389	0.036467	22.453546	5.770559	0.000000	0.247299	-0.253390	1.152804	0.459258	-0.337009	1.224854	0.406287	-0.616093	1.224854	0.282638	-0.616093	1.008704	0.229642	-0.516713	0.936653	0.141306	-0.392501	0.864603	1.766430	-2.866400	6.411550	0.000000	0.000000	28.010734	-3.445079	-10.566698	17.778941	-38.439471	67.606559	81.505483	50.141882	6.443596	2.828815	20.930275	-36.257111	60.409606	95.426063	85.317050	-12.472161	2.382136
1.698113	-4.516206	-7.794351	83.877446	0.233894	0.820933	0.750494	8.068821	-3.872862	-5.100123	7.466457	0.130314	22.553093	5.568238	0.000000	5.447009	2.090421	-3.412967	1.937068	0.033808	22.442838	6.010364	0.000000	0.234022	-0.250292	1.091425	0.434603	-0.332888	1.159639	0.384475	-0.608559	1.159639	0.267464	-0.608559	0.954997	0.217313	-0.510395	0.886783	0.133720	-0.387702	0.818568	1.671597	-2.831349	6.070176	0.000000	0.000000	27.942400	-3.323901	-10.025823	18.210885	-40.216087	68.045173	82.907415	52.708313	4.817361	3.259280	20.770283	-38.002350	60.012450	98.135495	85.699199	-13.887675	4.227784
1.716981	-4.451644	-7.468922	84.088242	0.233776	0.821833	0.748421	7.472799	-3.799277	-4.585787	7.164809	0.125050	22.490889	4.764172	0.000000	4.918836	2.076126	-3.389042	1.772457	0.030935	22.462015	6.207875	0.000000	0.216003	-0.244436	1.019138	0.401140	-0.325100	1.082834	0.354872	-0.594322	1.082834	0.246870	-0.594322	0.891746	0.200581	-0.498454	0.828050	0.123424	-0.378632	0.764354	1.542890	-2.765112	5.668142	0.000000	0.000000	27.865730	-3.178563	-9.522316	18.491825	-41.884624	68.270969	84.149830	56.418979	3.150039	3.311085	20.526245	-39.481249	59.687921	100.464561	85.543909	-14.811583	6.250328
1.735849	-4.353292	-7.138852	84.425523	0.233481	0.822748	0.746251	6.819801	-3.696874	-4.051787	6.814996	0.118944	22.336572	3.708475	0.000000	4.385001	2.042916	-3.248802	1.607132	0.028050	22.495461	6.394167	0.000000	0.199873	-0.235550	0.937963	0.371184	-0.313282	0.996586	0.328371	-0.572717	0.996586	0.228435	-0.572717	0.820718	0.185602	-0.480334	0.762095	0.114207	-0.364868	0.703472	1.427671	-2.664593	5.216669	0.000000	0.000000	27.789207	-2.989216	-9.051070	18.532306	-43.396040	68.172603	85.269146	61.557230	1.401685	3.012737	20.235174	-40.682730	59.480833	102.384564	85.057398	-15.077744	8.303536
1.754717	-4.241355	-6.812131	84.827801	0.233081	0.823635	0.744094	6.149144	-3.583612	-3.493863	6.454239	0.112648	22.107230	2.467337	0.000000	3.860046	2.004959	-3.024070	1.451121	0.025327	22.524424	6.537923	0.000000	0.185189	-0.226343	0.862845	0.343915	-0.301036	0.916773	0.304247	-0.550329	0.916773	0.211653	-0.550329	0.754989	0.171967	-0.461558	0.701062	0.105817	-0.350605	0.647134	1.322787	-2.560432	4.798885	0.000000	0.000000	27.712301	-2.783145	-8.729121	18.236699	-44.682447	67.702457	86.218459	67.332543	-0.256618	2.327699	19.972415	-41.585625	59.438124	103.829525	84.713488	-14.610422	9.963859
1.773585	-4.129406	-6.503532	85.274467	0.232604	0.824443	0.742080	5.497603	-3.474910	-2.972448	6.110381	0.106646	21.828283	1.156026	0.000000	3.372810	1.971035	-2.769251	1.321316	0.023061	22.543772	6.690337	0.000000	0.172473	-0.218216	0.791318	0.320299	-0.290228	0.840776	0.283355	-0.530572	0.840776	0.197119	-0.530572	0.692404	0.160158	-0.444987	0.642946	0.098551	-0.338017	0.593489	1.231955	-2.468508	4.401076	0.000000	0.000000	27.636366	-2.572635	-8.564662	17.674804	-45.705641	67.067533	86.970748	72.540655	-1.651495	1.516381	19.790391	-42.190740	59.524247	104.819166	84.957819	-13.420358	11.039447
1.792453	-4.018091	-6.228871	85.725007	0.232084	0.825122	0.740301	4.904704	-3.367724	-2.519749	5.814232	0.101477	21.524842	-0.121684	0.000000	2.942920	1.935661	-2.452444	1.218812	0.021272	22.541939	6.759035	0.000000	0.162885	-0.209898	0.726476	0.302493	-0.279165	0.771881	0.267603	-0.510347	0.771881	0.186161	-0.510347	0.635667	0.151255	-0.428025	0.590262	0.093072	-0.325133	0.544857	1.163470	-2.374413	4.040443	0.000000	0.000000	27.563397	-2.360046	-8.486207	17.027831	-46.469720	66.534089	87.549694	76.576836	-2.814997	0.768047	19.747882	-42.542214	59.858725	105.419614	85.771152	-11.847157	11.434656
1.811321	-3.913439	-5.993296	86.155785	0.231562	0.825634	0.738812	4.388376	-3.266276	-2.161731	5.581534	0.097416	21.219751	-1.283565	0.000000	2.577671	1.900456	-2.054475	1.142176	0.019935	22.523408	6.702940	0.000000	0.156110	-0.201944	0.671838	0.289912	-0.268585	0.713828	0.256473	-0.491006	0.713828	0.178418	-0.491006	0.587858	0.144964	-0.411804	0.545868	0.089201	-0.312811	0.503879	1.115079	-2.284428	3.736562	0.000000	0.000000	27.493443	-2.152038	-8.491600	16.427398	-46.994387	66.239850	87.959285	79.385592	-3.752841	0.177437	19.914209	-42.670175	60.508341	105.702900	86.933329	-10.062224	11.252191
1.830189	-3.825416	-5.800542	86.540274	0.231077	0.825962	0.737629	3.964342	-3.178969	-1.915663	5.427468	0.094727	20.938643	-2.261625	0.000000	2.280215	1.871418	-1.598957	1.087740	0.018985	22.490800	6.513016	0.000000	0.152809	-0.195342	0.629833	0.283781	-0.259805	0.669198	0.251050	-0.474955	0.669198	0.174645	-0.474955	0.551104	0.141898	-0.398341	0.511739	0.087315	-0.302585	0.472375	1.091498	-2.209748	3.502943	0.000000	0.000000	27.420496	-1.959824	-8.567536	15.995885	-47.308818	66.335306	88.193622	80.717896	-4.430615	-0.193169	20.355190	-42.603741	61.577108	105.709107	87.914116	-8.142347	10.584485
1.849057	-3.751367	-5.637474	86.871681	0.230663	0.826118	0.736763	3.620915	-3.105762	-1.807459	5.352924	0.093426	20.706731	-3.000215	0.000000	2.037274	1.844478	-1.094773	1.053557	0.018388	22.455802	6.208191	0.000000	0.150446	-0.190648	0.608889	0.279393	-0.253561	0.646944	0.247167	-0.463541	0.646944	0.171945	-0.463541	0.532778	0.139704	-0.388769	0.494722	0.085965	-0.295313	0.456667	1.074620	-2.156645	3.386457	0.000000	0.000000	27.338002	-1.811106	-8.775969	15.750696	-47.451088	66.805920	88.249756	80.584534	-4.772037	-0.311430	21.201712	-42.325693	63.225902	105.467411	88.296900	-6.150244	9.581872
1.867925	-3.692352	-5.500964	87.122169	0.230378	0.826099	0.736152	3.351351	-3.045367	-1.816999	5.346844	0.093320	20.557267	-3.468804	0.000000	1.832880	1.818216	-0.508945	1.021801	0.017834	22.423289	5.738993	0.000000	0.149303	-0.188398	0.625219	0.277271	-0.250570	0.664295	0.245290	-0.458072	0.664295	0.170639	-0.458072	0.547067	0.138643	-0.384182	0.507990	0.085312	-0.291829	0.468914	1.066459	-2.131199	3.477281	0.000000	0.000000	27.241777	-1.763615	-9.201872	15.586933	-47.419691	67.409116	88.113939	79.414963	-4.573109	-0.135085	22.499536	-41.795513	65.427532	104.959614	87.987455	-3.780529	8.149997
1.886792	-3.647006	-5.386417	87.297099	0.230285	0.825934	0.735777	3.152406	-2.990090	-1.937111	5.400908	0.094264	20.468407	-3.704711	0.000000	1.667084	1.786650	0.092689	0.997203	0.017404	22.381151	5.173979	0.000000	0.148954	-0.189429	0.664377	0.276622	-0.251941	0.705900	0.244716	-0.460579	0.705900	0.170239	-0.460579	0.581330	0.138319	-0.386284	0.539806	0.085112	-0.293426	0.498283	1.063963	-2.142863	3.695064	0.000000	0.000000	27.137010	-1.729835	-9.738719	15.649864	-47.146873	68.303295	87.733482	77.310467	-3.852932	0.122359	24.102121	-41.064098	67.975215	104.420060	87.040502	-1.548646	6.925741
1.905660	-3.607232	-5.302087	87.412787	0.230384	0.825636	0.735577	3.028492	-2.934670	-2.209586	5.510127	0.096170	20.450594	-3.686038	0.000000	1.550256	1.740501	0.725162	0.992048	0.017315	22.324991	4.525040	0.000000	0.150703	-0.192819	0.730679	0.279871	-0.256450	0.776347	0.247591	-0.468821	0.776347	0.172239	-0.468821	0.639344	0.139943	-0.393197	0.593677	0.086112	-0.298677	0.548009	1.076459	-2.181211	4.063818	0.000000	0.000000	27.027410	-1.739959	-10.419914	15.743174	-46.610246	69.124195	87.155604	74.492457	-2.541046	0.562294	25.955377	-40.105576	70.727686	103.792919	85.809708	0.634545	5.485662
1.924528	-3.563944	-5.218506	87.449526	0.230702	0.825228	0.735448	2.929899	-2.864138	-2.499891	5.632735	0.098310	20.513126	-3.530196	0.000000	1.428374	1.673902	1.326743	0.976539	0.017044	22.275922	3.857870	0.000000	0.150700	-0.197074	0.799838	0.279864	-0.262108	0.849827	0.247584	-0.479165	0.849827	0.172235	-0.479165	0.699858	0.139940	-0.401873	0.649868	0.086110	-0.305267	0.599878	1.076432	-2.229338	4.448456	0.000000	0.000000	26.930752	-1.775832	-11.143089	16.060710	-45.715369	70.056415	86.357513	71.584884	-0.745703	0.817665	27.730145	-38.963422	73.202139	103.285422	84.478796	2.793562	4.404742
